<?xml version="1.0" standalone="no"?>
<!DOCTYPE svg PUBLIC "-//W3C//DTD SVG 20010904//EN"
 "http://www.w3.org/TR/2001/REC-SVG-20010904/DTD/svg10.dtd">
<svg version="1.0" xmlns="http://www.w3.org/2000/svg"
 width="526.000000pt" height="526.000000pt" viewBox="0 0 526.000000 526.000000"
 preserveAspectRatio="xMidYMid meet">
<metadata>
Created by potrace 1.11, written by Peter Selinger 2001-2013
</metadata>
<g transform="translate(0.000000,526.000000) scale(0.100000,-0.100000)"
fill="#000000" stroke="none">
<path d="M2235 3889 c-838 -73 -1528 -373 -1800 -784 -94 -144 -131 -271 -123
-428 32 -571 831 -1045 1918 -1137 149 -13 554 -13 695 0 681 61 1241 259
1598 565 137 117 242 270 294 425 14 42 18 86 18 185 0 117 -3 138 -28 210
-177 504 -930 884 -1912 965 -142 12 -518 11 -660 -1z m1721 -510 c32 -6 96
-27 141 -46 100 -43 124 -40 150 17 19 41 43 53 43 23 0 -37 20 -310 26 -355
9 -75 -17 -62 -50 25 -71 182 -191 276 -364 285 -291 16 -462 -205 -462 -595
0 -357 170 -564 465 -563 147 1 220 33 337 151 48 48 90 83 94 77 9 -15 -62
-112 -123 -168 -210 -192 -586 -183 -790 18 -312 307 -227 883 157 1071 132
64 250 83 376 60z m-2467 -30 c116 -12 224 -43 292 -85 116 -70 216 -212 250
-354 7 -30 13 -109 13 -175 -1 -104 -4 -131 -28 -200 -69 -203 -206 -328 -423
-387 -71 -19 -112 -21 -440 -25 -329 -5 -363 -4 -363 11 0 12 10 16 45 16 60
0 103 23 121 65 21 51 21 999 0 1050 -18 42 -61 65 -121 65 -34 0 -45 4 -45
15 0 14 37 16 308 14 169 -1 345 -5 391 -10z m1572 -76 c0 -49 2 -109 5 -135
4 -42 2 -48 -14 -48 -14 0 -23 15 -36 57 -22 68 -66 117 -121 132 -22 6 -120
11 -217 11 l-178 0 0 -245 0 -245 130 0 c185 0 216 16 242 128 7 29 18 52 25
52 10 0 13 -48 13 -215 0 -184 -2 -215 -15 -215 -11 0 -15 11 -15 35 0 52 -33
109 -74 129 -26 12 -65 16 -170 16 l-136 0 0 -247 c0 -178 4 -255 13 -273 16
-33 72 -60 125 -60 31 0 42 -4 42 -15 0 -13 -37 -15 -270 -15 -233 0 -270 2
-270 15 0 11 12 15 45 15 26 0 59 7 75 15 61 31 60 25 60 577 0 382 -3 509
-13 528 -16 33 -72 60 -124 60 -32 0 -43 4 -43 15 0 13 58 15 460 15 l460 0 1
-87z"/>
<path d="M1203 3289 l-53 -11 0 -538 0 -539 48 -8 c26 -4 97 -8 157 -7 89 0
121 5 166 22 163 64 276 211 309 398 18 103 9 272 -20 357 -48 140 -157 257
-287 307 -67 26 -233 36 -320 19z"/>
</g>
</svg>
