<svg xmlns="http://www.w3.org/2000/svg" xmlns:xlink="http://www.w3.org/1999/xlink" version="1.1" x="0px" y="0px" viewBox="0 0 100 125" enable-background="new 0 0 100 100" xml:space="preserve"><path d="M60.872,26.978H39.128c-1.504,0-2.723,1.411-2.723,3.153v41.304c0,1.741,1.219,3.153,2.723,3.153h21.744  c1.505,0,2.723-1.412,2.723-3.153V30.13C63.595,28.389,62.377,26.978,60.872,26.978z M44.399,30.127h11.201  c0.177,0,0.321,0.179,0.321,0.399c0,0.222-0.145,0.401-0.321,0.401H44.399c-0.179,0-0.321-0.179-0.321-0.401  C44.078,30.306,44.221,30.127,44.399,30.127z M50,72.346c-0.736,0-1.334-0.597-1.334-1.333c0-0.736,0.598-1.334,1.334-1.334  s1.334,0.598,1.334,1.334C51.334,71.749,50.736,72.346,50,72.346z M61.991,67.609H38.008V33.956h23.983V67.609z"/><text x="0" y="115" fill="#000000" font-size="5px" font-weight="bold" font-family="'Helvetica Neue', Helvetica, Arial-Unicode, Arial, Sans-serif">Created by Thomas</text><text x="0" y="120" fill="#000000" font-size="5px" font-weight="bold" font-family="'Helvetica Neue', Helvetica, Arial-Unicode, Arial, Sans-serif">from the Noun Project</text></svg>